<mxfile host="app.diagrams.net" agent="Mozilla/5.0 (Windows NT 10.0; Win64; x64; rv:128.0) Gecko/20100101 Firefox/128.0" version="24.7.6">
  <diagram name="Page-1" id="XL7aOvfswbLCJt72OOd4">
    <mxGraphModel dx="993" dy="483" grid="1" gridSize="10" guides="1" tooltips="1" connect="1" arrows="1" fold="1" page="1" pageScale="1" pageWidth="850" pageHeight="1100" math="0" shadow="0">
      <root>
        <mxCell id="0" />
        <mxCell id="1" parent="0" />
        <mxCell id="dqJ6s_WNs2dBz0giZzQX-1" value="" style="rounded=0;whiteSpace=wrap;html=1;" vertex="1" parent="1">
          <mxGeometry x="105" y="100" width="1125" height="505" as="geometry" />
        </mxCell>
        <mxCell id="dqJ6s_WNs2dBz0giZzQX-4" value="" style="rounded=0;whiteSpace=wrap;html=1;" vertex="1" parent="1">
          <mxGeometry x="105" y="80" width="65" height="20" as="geometry" />
        </mxCell>
        <mxCell id="dqJ6s_WNs2dBz0giZzQX-16" value="" style="edgeStyle=orthogonalEdgeStyle;rounded=0;orthogonalLoop=1;jettySize=auto;html=1;entryX=0.129;entryY=0.344;entryDx=0;entryDy=0;entryPerimeter=0;dashed=1;exitX=0.179;exitY=1;exitDx=0;exitDy=0;exitPerimeter=0;" edge="1" parent="1" source="dqJ6s_WNs2dBz0giZzQX-5">
          <mxGeometry relative="1" as="geometry">
            <mxPoint x="570" y="100" as="sourcePoint" />
            <mxPoint x="210.01500000000004" y="270.0799999999999" as="targetPoint" />
            <Array as="points">
              <mxPoint x="570" y="180" />
              <mxPoint x="210" y="180" />
            </Array>
          </mxGeometry>
        </mxCell>
        <mxCell id="dqJ6s_WNs2dBz0giZzQX-61" style="edgeStyle=orthogonalEdgeStyle;rounded=0;orthogonalLoop=1;jettySize=auto;html=1;entryX=0.25;entryY=0;entryDx=0;entryDy=0;exitX=0.25;exitY=1;exitDx=0;exitDy=0;dashed=1;" edge="1" parent="1" source="dqJ6s_WNs2dBz0giZzQX-5" target="dqJ6s_WNs2dBz0giZzQX-11">
          <mxGeometry relative="1" as="geometry">
            <Array as="points">
              <mxPoint x="580" y="200" />
              <mxPoint x="335" y="200" />
            </Array>
          </mxGeometry>
        </mxCell>
        <mxCell id="dqJ6s_WNs2dBz0giZzQX-62" value="Authenticate" style="edgeLabel;html=1;align=center;verticalAlign=middle;resizable=0;points=[];" vertex="1" connectable="0" parent="dqJ6s_WNs2dBz0giZzQX-61">
          <mxGeometry x="0.4793" y="5" relative="1" as="geometry">
            <mxPoint x="91" y="-5" as="offset" />
          </mxGeometry>
        </mxCell>
        <mxCell id="dqJ6s_WNs2dBz0giZzQX-5" value="&lt;div&gt;Frontend &lt;br&gt;&lt;/div&gt;&lt;div&gt;Next.js&lt;br&gt;&lt;/div&gt;" style="rounded=0;whiteSpace=wrap;html=1;" vertex="1" parent="1">
          <mxGeometry x="545" y="20" width="140" height="50" as="geometry" />
        </mxCell>
        <mxCell id="dqJ6s_WNs2dBz0giZzQX-6" value="&lt;div&gt;&lt;br&gt;&lt;/div&gt;&lt;div&gt;&lt;b&gt;UserDb&lt;/b&gt;&lt;/div&gt;" style="strokeWidth=2;html=1;shape=mxgraph.flowchart.database;whiteSpace=wrap;" vertex="1" parent="1">
          <mxGeometry x="170" y="360" width="80" height="40" as="geometry" />
        </mxCell>
        <mxCell id="dqJ6s_WNs2dBz0giZzQX-7" value="&lt;div&gt;&lt;b&gt;&lt;br&gt;&lt;/b&gt;&lt;/div&gt;&lt;div&gt;&lt;b&gt;AuthDb&lt;/b&gt;&lt;/div&gt;" style="strokeWidth=2;html=1;shape=mxgraph.flowchart.database;whiteSpace=wrap;" vertex="1" parent="1">
          <mxGeometry x="320" y="360" width="80" height="40" as="geometry" />
        </mxCell>
        <mxCell id="dqJ6s_WNs2dBz0giZzQX-12" value="" style="edgeStyle=orthogonalEdgeStyle;rounded=0;orthogonalLoop=1;jettySize=auto;html=1;startArrow=classic;startFill=1;" edge="1" parent="1" source="dqJ6s_WNs2dBz0giZzQX-10" target="dqJ6s_WNs2dBz0giZzQX-6">
          <mxGeometry relative="1" as="geometry" />
        </mxCell>
        <mxCell id="dqJ6s_WNs2dBz0giZzQX-15" value="" style="edgeStyle=orthogonalEdgeStyle;rounded=0;orthogonalLoop=1;jettySize=auto;html=1;startArrow=classic;startFill=1;" edge="1" parent="1" source="dqJ6s_WNs2dBz0giZzQX-10" target="dqJ6s_WNs2dBz0giZzQX-11">
          <mxGeometry relative="1" as="geometry" />
        </mxCell>
        <mxCell id="dqJ6s_WNs2dBz0giZzQX-10" value="&lt;div&gt;Flask&lt;/div&gt;&lt;div&gt;&lt;b&gt;User Module&lt;/b&gt;&lt;br&gt;&lt;/div&gt;" style="rounded=0;whiteSpace=wrap;html=1;" vertex="1" parent="1">
          <mxGeometry x="160" y="270" width="100" height="50" as="geometry" />
        </mxCell>
        <mxCell id="dqJ6s_WNs2dBz0giZzQX-14" value="" style="edgeStyle=orthogonalEdgeStyle;rounded=0;orthogonalLoop=1;jettySize=auto;html=1;startArrow=classic;startFill=1;" edge="1" parent="1" source="dqJ6s_WNs2dBz0giZzQX-11" target="dqJ6s_WNs2dBz0giZzQX-7">
          <mxGeometry relative="1" as="geometry" />
        </mxCell>
        <mxCell id="dqJ6s_WNs2dBz0giZzQX-48" style="edgeStyle=orthogonalEdgeStyle;rounded=0;orthogonalLoop=1;jettySize=auto;html=1;entryX=0.5;entryY=0;entryDx=0;entryDy=0;exitX=0.75;exitY=0;exitDx=0;exitDy=0;" edge="1" parent="1" source="dqJ6s_WNs2dBz0giZzQX-11" target="dqJ6s_WNs2dBz0giZzQX-31">
          <mxGeometry relative="1" as="geometry">
            <Array as="points">
              <mxPoint x="385" y="260" />
              <mxPoint x="555" y="260" />
            </Array>
          </mxGeometry>
        </mxCell>
        <mxCell id="dqJ6s_WNs2dBz0giZzQX-49" style="edgeStyle=orthogonalEdgeStyle;rounded=0;orthogonalLoop=1;jettySize=auto;html=1;entryX=0.5;entryY=0;entryDx=0;entryDy=0;exitX=1;exitY=0;exitDx=0;exitDy=0;" edge="1" parent="1" source="dqJ6s_WNs2dBz0giZzQX-11" target="dqJ6s_WNs2dBz0giZzQX-32">
          <mxGeometry relative="1" as="geometry">
            <Array as="points">
              <mxPoint x="370" y="270" />
              <mxPoint x="370" y="250" />
              <mxPoint x="750" y="250" />
            </Array>
          </mxGeometry>
        </mxCell>
        <mxCell id="dqJ6s_WNs2dBz0giZzQX-11" value="&lt;div&gt;Flask&lt;/div&gt;&lt;div&gt;&lt;b&gt;Auth Module&lt;/b&gt;&lt;br&gt;&lt;/div&gt;" style="rounded=0;whiteSpace=wrap;html=1;" vertex="1" parent="1">
          <mxGeometry x="310" y="270" width="100" height="50" as="geometry" />
        </mxCell>
        <mxCell id="dqJ6s_WNs2dBz0giZzQX-21" value="" style="endArrow=none;html=1;rounded=0;" edge="1" parent="1">
          <mxGeometry width="50" height="50" relative="1" as="geometry">
            <mxPoint x="1040" y="164.38" as="sourcePoint" />
            <mxPoint x="1120" y="164.38" as="targetPoint" />
          </mxGeometry>
        </mxCell>
        <mxCell id="dqJ6s_WNs2dBz0giZzQX-24" value="" style="endArrow=none;html=1;rounded=0;dashed=1;" edge="1" parent="1">
          <mxGeometry width="50" height="50" relative="1" as="geometry">
            <mxPoint x="1040" y="134.38" as="sourcePoint" />
            <mxPoint x="1120" y="134.38" as="targetPoint" />
            <Array as="points" />
          </mxGeometry>
        </mxCell>
        <mxCell id="dqJ6s_WNs2dBz0giZzQX-26" value="Asychoronous" style="text;html=1;align=center;verticalAlign=middle;whiteSpace=wrap;rounded=0;" vertex="1" parent="1">
          <mxGeometry x="1120" y="120" width="90" height="30" as="geometry" />
        </mxCell>
        <mxCell id="dqJ6s_WNs2dBz0giZzQX-27" value="Sychoronous" style="text;html=1;align=center;verticalAlign=middle;whiteSpace=wrap;rounded=0;" vertex="1" parent="1">
          <mxGeometry x="1120" y="150" width="90" height="30" as="geometry" />
        </mxCell>
        <mxCell id="dqJ6s_WNs2dBz0giZzQX-36" value="" style="edgeStyle=orthogonalEdgeStyle;rounded=0;orthogonalLoop=1;jettySize=auto;html=1;startArrow=classic;startFill=1;" edge="1" parent="1" source="dqJ6s_WNs2dBz0giZzQX-29" target="dqJ6s_WNs2dBz0giZzQX-30">
          <mxGeometry relative="1" as="geometry" />
        </mxCell>
        <mxCell id="dqJ6s_WNs2dBz0giZzQX-29" value="&lt;div&gt;&lt;b&gt;&lt;br&gt;&lt;/b&gt;&lt;/div&gt;&lt;div&gt;&lt;b&gt;ContentDb&lt;/b&gt;&lt;/div&gt;" style="strokeWidth=2;html=1;shape=mxgraph.flowchart.database;whiteSpace=wrap;" vertex="1" parent="1">
          <mxGeometry x="800" y="510" width="80" height="40" as="geometry" />
        </mxCell>
        <mxCell id="dqJ6s_WNs2dBz0giZzQX-30" value="Content Flask" style="rounded=0;whiteSpace=wrap;html=1;" vertex="1" parent="1">
          <mxGeometry x="760" y="400" width="160" height="50" as="geometry" />
        </mxCell>
        <mxCell id="dqJ6s_WNs2dBz0giZzQX-31" value="&lt;div&gt;Flask&lt;/div&gt;&lt;div&gt;&lt;b&gt;Loan Module&lt;/b&gt;&lt;br&gt;&lt;/div&gt;" style="rounded=0;whiteSpace=wrap;html=1;" vertex="1" parent="1">
          <mxGeometry x="490" y="280" width="130" height="40" as="geometry" />
        </mxCell>
        <mxCell id="dqJ6s_WNs2dBz0giZzQX-46" style="edgeStyle=orthogonalEdgeStyle;rounded=0;orthogonalLoop=1;jettySize=auto;html=1;entryX=1;entryY=0.5;entryDx=0;entryDy=0;startArrow=classic;startFill=1;" edge="1" parent="1" source="dqJ6s_WNs2dBz0giZzQX-32" target="dqJ6s_WNs2dBz0giZzQX-31">
          <mxGeometry relative="1" as="geometry" />
        </mxCell>
        <mxCell id="dqJ6s_WNs2dBz0giZzQX-47" value="" style="edgeStyle=orthogonalEdgeStyle;rounded=0;orthogonalLoop=1;jettySize=auto;html=1;startArrow=classic;startFill=1;" edge="1" parent="1" source="dqJ6s_WNs2dBz0giZzQX-32" target="dqJ6s_WNs2dBz0giZzQX-33">
          <mxGeometry relative="1" as="geometry" />
        </mxCell>
        <mxCell id="dqJ6s_WNs2dBz0giZzQX-32" value="&lt;div&gt;Flask&lt;/div&gt;&lt;div&gt;&lt;b&gt;Admin Module&lt;/b&gt;&lt;br&gt;&lt;/div&gt;" style="rounded=0;whiteSpace=wrap;html=1;" vertex="1" parent="1">
          <mxGeometry x="685" y="280" width="130" height="40" as="geometry" />
        </mxCell>
        <mxCell id="dqJ6s_WNs2dBz0giZzQX-33" value="&lt;div&gt;Flask&lt;/div&gt;&lt;div&gt;&lt;b&gt;Notification Module&lt;/b&gt;&lt;br&gt;&lt;/div&gt;" style="rounded=0;whiteSpace=wrap;html=1;" vertex="1" parent="1">
          <mxGeometry x="880" y="280" width="137.5" height="40" as="geometry" />
        </mxCell>
        <mxCell id="dqJ6s_WNs2dBz0giZzQX-35" value="&lt;div&gt;Flask&lt;/div&gt;&lt;div&gt;&lt;b&gt;Activity Module&lt;/b&gt;&lt;br&gt;&lt;/div&gt;" style="rounded=0;whiteSpace=wrap;html=1;" vertex="1" parent="1">
          <mxGeometry x="1080" y="280" width="122.5" height="40" as="geometry" />
        </mxCell>
        <mxCell id="dqJ6s_WNs2dBz0giZzQX-39" value="" style="endArrow=classic;startArrow=classic;html=1;rounded=0;entryX=0.5;entryY=1;entryDx=0;entryDy=0;dashed=1;" edge="1" parent="1" target="dqJ6s_WNs2dBz0giZzQX-31">
          <mxGeometry width="50" height="50" relative="1" as="geometry">
            <mxPoint x="783" y="400" as="sourcePoint" />
            <mxPoint x="600" y="350" as="targetPoint" />
          </mxGeometry>
        </mxCell>
        <mxCell id="dqJ6s_WNs2dBz0giZzQX-41" value="" style="endArrow=classic;startArrow=classic;html=1;rounded=0;dashed=1;entryX=0.5;entryY=1;entryDx=0;entryDy=0;exitX=0.75;exitY=0;exitDx=0;exitDy=0;" edge="1" parent="1" source="dqJ6s_WNs2dBz0giZzQX-30" target="dqJ6s_WNs2dBz0giZzQX-35">
          <mxGeometry width="50" height="50" relative="1" as="geometry">
            <mxPoint x="840" y="400" as="sourcePoint" />
            <mxPoint x="990" y="320" as="targetPoint" />
          </mxGeometry>
        </mxCell>
        <mxCell id="dqJ6s_WNs2dBz0giZzQX-44" value="" style="endArrow=classic;startArrow=classic;html=1;rounded=0;entryX=0.423;entryY=1;entryDx=0;entryDy=0;entryPerimeter=0;dashed=1;" edge="1" parent="1" target="dqJ6s_WNs2dBz0giZzQX-32">
          <mxGeometry width="50" height="50" relative="1" as="geometry">
            <mxPoint x="810" y="400" as="sourcePoint" />
            <mxPoint x="800" y="370" as="targetPoint" />
          </mxGeometry>
        </mxCell>
        <mxCell id="dqJ6s_WNs2dBz0giZzQX-45" value="" style="endArrow=classic;startArrow=classic;html=1;rounded=0;entryX=0.5;entryY=1;entryDx=0;entryDy=0;exitX=0.559;exitY=0.015;exitDx=0;exitDy=0;exitPerimeter=0;dashed=1;" edge="1" parent="1" source="dqJ6s_WNs2dBz0giZzQX-30" target="dqJ6s_WNs2dBz0giZzQX-33">
          <mxGeometry width="50" height="50" relative="1" as="geometry">
            <mxPoint x="750" y="420" as="sourcePoint" />
            <mxPoint x="800" y="370" as="targetPoint" />
          </mxGeometry>
        </mxCell>
        <mxCell id="dqJ6s_WNs2dBz0giZzQX-51" style="edgeStyle=orthogonalEdgeStyle;rounded=0;orthogonalLoop=1;jettySize=auto;html=1;exitX=0.5;exitY=0;exitDx=0;exitDy=0;" edge="1" parent="1" source="dqJ6s_WNs2dBz0giZzQX-11">
          <mxGeometry relative="1" as="geometry">
            <mxPoint x="385" y="279.9999999999999" as="sourcePoint" />
            <mxPoint x="900" y="280" as="targetPoint" />
            <Array as="points">
              <mxPoint x="360" y="240" />
              <mxPoint x="900" y="240" />
              <mxPoint x="900" y="280" />
            </Array>
          </mxGeometry>
        </mxCell>
        <mxCell id="dqJ6s_WNs2dBz0giZzQX-52" style="edgeStyle=orthogonalEdgeStyle;rounded=0;orthogonalLoop=1;jettySize=auto;html=1;exitX=0.4;exitY=0;exitDx=0;exitDy=0;exitPerimeter=0;" edge="1" parent="1" source="dqJ6s_WNs2dBz0giZzQX-11">
          <mxGeometry relative="1" as="geometry">
            <mxPoint x="1100" y="280" as="targetPoint" />
            <Array as="points">
              <mxPoint x="350" y="230" />
              <mxPoint x="1100" y="230" />
              <mxPoint x="1100" y="280" />
            </Array>
          </mxGeometry>
        </mxCell>
        <mxCell id="dqJ6s_WNs2dBz0giZzQX-54" style="edgeStyle=orthogonalEdgeStyle;rounded=0;orthogonalLoop=1;jettySize=auto;html=1;dashed=1;startArrow=classic;startFill=1;exitX=0.464;exitY=1;exitDx=0;exitDy=0;exitPerimeter=0;" edge="1" parent="1" source="dqJ6s_WNs2dBz0giZzQX-5">
          <mxGeometry relative="1" as="geometry">
            <mxPoint x="610" y="80" as="sourcePoint" />
            <mxPoint x="610" y="280" as="targetPoint" />
            <Array as="points" />
          </mxGeometry>
        </mxCell>
        <mxCell id="dqJ6s_WNs2dBz0giZzQX-57" style="edgeStyle=orthogonalEdgeStyle;rounded=0;orthogonalLoop=1;jettySize=auto;html=1;dashed=1;entryX=0.821;entryY=1;entryDx=0;entryDy=0;entryPerimeter=0;" edge="1" parent="1" source="dqJ6s_WNs2dBz0giZzQX-35" target="dqJ6s_WNs2dBz0giZzQX-5">
          <mxGeometry relative="1" as="geometry">
            <mxPoint x="660" y="80" as="targetPoint" />
            <Array as="points">
              <mxPoint x="1120" y="200" />
              <mxPoint x="660" y="200" />
            </Array>
          </mxGeometry>
        </mxCell>
        <mxCell id="dqJ6s_WNs2dBz0giZzQX-72" style="edgeStyle=orthogonalEdgeStyle;rounded=0;orthogonalLoop=1;jettySize=auto;html=1;entryX=0.675;entryY=0.99;entryDx=0;entryDy=0;entryPerimeter=0;dashed=1;" edge="1" parent="1" source="dqJ6s_WNs2dBz0giZzQX-33" target="dqJ6s_WNs2dBz0giZzQX-5">
          <mxGeometry relative="1" as="geometry">
            <Array as="points">
              <mxPoint x="949" y="210" />
              <mxPoint x="640" y="210" />
            </Array>
          </mxGeometry>
        </mxCell>
      </root>
    </mxGraphModel>
  </diagram>
</mxfile>
